<?xml version="1.0" standalone="no"?>
<!DOCTYPE svg PUBLIC "-//W3C//DTD SVG 20010904//EN"
 "http://www.w3.org/TR/2001/REC-SVG-20010904/DTD/svg10.dtd">
<svg version="1.0" xmlns="http://www.w3.org/2000/svg"
 width="512.000000pt" height="512.000000pt" viewBox="0 0 512.000000 512.000000"
 preserveAspectRatio="xMidYMid meet">
<metadata>
Created by potrace 1.16, written by Peter Selinger 2001-2019
</metadata>
<g transform="translate(0.000000,512.000000) scale(0.100000,-0.100000)"
fill="#000000" stroke="none">
<path d="M2235 5105 c-462 -60 -885 -237 -1255 -523 -117 -91 -316 -287 -413
-407 -276 -342 -459 -746 -537 -1186 -28 -156 -39 -531 -21 -702 43 -399 182
-790 398 -1122 98 -150 184 -257 318 -394 419 -430 948 -690 1550 -760 134
-16 460 -13 605 4 748 93 1416 512 1833 1150 210 321 344 690 392 1075 20 162
20 477 0 640 -92 742 -510 1412 -1140 1826 -329 216 -695 350 -1085 399 -152
18 -501 18 -645 0z m107 -1588 c207 -302 379 -549 382 -550 3 -1 218 246 479
548 l473 550 128 3 c75 1 126 -1 124 -7 -1 -5 -123 -148 -269 -317 -146 -170
-390 -454 -542 -631 l-277 -321 531 -774 c292 -425 560 -815 596 -865 l64 -93
-439 0 -439 0 -398 580 c-219 319 -401 580 -404 579 -3 0 -229 -260 -501 -577
l-496 -577 -132 -3 -132 -3 574 668 574 667 -32 46 c-36 49 -1071 1557 -1101
1603 l-17 27 438 -2 439 -3 377 -548z"/>
<path d="M2359 2558 l918 -1313 196 -3 c108 -1 197 1 197 5 0 5 -411 595 -913
1313 l-913 1305 -202 3 -201 2 918 -1312z"/>
</g>
</svg>
